<svg style="background:#fff" version="1.0" width="1300pt" height="1130pt" viewBox="0 0 1300 1130" preserveAspectRatio="xMidYMid" id="svg96" sodipodi:docname="LOGO-ENTIER-2.svg" inkscape:version="1.4 (86a8ad7, 2024-10-11)" xmlns:inkscape="http://www.inkscape.org/namespaces/inkscape" xmlns:sodipodi="http://sodipodi.sourceforge.net/DTD/sodipodi-0.dtd" xmlns="http://www.w3.org/2000/svg" xmlns:svg="http://www.w3.org/2000/svg">
    <defs id="defs96"/>
    <sodipodi:namedview id="namedview96" pagecolor="#ffffff" bordercolor="#000000" borderopacity="0.25" inkscape:showpageshadow="2" inkscape:pageopacity="0.0" inkscape:pagecheckerboard="0" inkscape:deskcolor="#d1d1d1" inkscape:document-units="pt" showgrid="false" inkscape:zoom="0.28531759" inkscape:cx="1682.3358" inkscape:cy="1340.6114" inkscape:window-width="1920" inkscape:window-height="1009" inkscape:window-x="-8" inkscape:window-y="-8" inkscape:window-maximized="1" inkscape:current-layer="svg96"/>
    <g transform="matrix(0.1,0,0,-0.1,-496.8148,1352.7956)" fill="#000000" stroke="none" id="g96">
        <g id="tawara" fill="#E1000F">
            <path d="m 11528,13439 c -65,-9 -167,-48 -246,-92 l -53,-29 43,-47 c 89,-95 219,-261 322,-411 171,-248 188,-271 241,-311 143,-108 343,-133 528,-66 38,14 71,28 74,31 13,12 -144,325 -291,579 -136,237 -219,308 -399,342 -85,16 -131,17 -219,4 z" id="path1"/>
            <path d="m 10790,13408 c -118,-17 -255,-75 -368,-157 l -42,-31 72,-62 c 40,-34 197,-184 348,-333 223,-221 286,-277 331,-298 68,-32 128,-46 190,-47 65,0 230,44 317,85 l 73,34 -62,93 c -169,252 -298,419 -441,565 -78,81 -173,136 -267,153 -60,11 -61,11 -151,-2 z" id="path2"/>
            <path d="m 12256,13344 c -66,-13 -166,-42 -166,-49 0,-2 35,-61 77,-132 42,-70 141,-254 219,-408 158,-312 202,-372 306,-420 102,-46 294,-67 410,-44 l 56,11 -15,57 c -61,238 -190,600 -266,746 -60,115 -193,218 -315,244 -70,15 -220,12 -306,-5 z" id="path3"/>
            <path d="m 9915,13226 c -38,-12 -89,-32 -111,-44 -58,-29 -183,-131 -216,-174 l -28,-36 58,-32 c 117,-66 372,-241 516,-354 83,-65 167,-126 188,-137 134,-69 315,-63 470,15 68,34 167,105 168,119 0,14 -344,359 -465,467 -60,53 -132,112 -160,129 -116,73 -283,92 -420,47 z" id="path4"/>
            <path d="m 12998,13146 c -32,-7 -60,-15 -63,-17 -2,-3 18,-57 46,-120 59,-133 99,-249 179,-523 67,-225 95,-280 185,-364 98,-91 219,-132 387,-132 h 100 l -6,68 c -21,206 -110,667 -151,782 -54,151 -177,251 -369,300 -90,23 -218,25 -308,6 z" id="path5"/>
            <path d="m 9234,12965 c -71,-15 -166,-60 -234,-110 -58,-43 -168,-158 -197,-207 l -21,-36 111,-42 c 109,-42 484,-228 600,-297 102,-62 159,-77 282,-78 106,0 113,1 185,36 82,40 173,105 235,168 l 40,42 -30,24 c -77,64 -313,240 -387,288 -335,218 -418,248 -584,212 z" id="path6"/>
            <path d="m 13762,12728 c 38,-158 84,-414 107,-603 11,-88 27,-183 35,-210 52,-170 256,-314 483,-340 l 62,-7 3,214 c 4,276 -7,556 -26,645 -8,39 -26,94 -41,123 -31,61 -110,148 -173,192 -84,58 -242,98 -386,98 h -92 z" id="path7"/>
            <path d="m 8502,12560 c -97,-26 -177,-76 -254,-159 -59,-64 -168,-230 -168,-256 0,-7 70,-30 166,-54 91,-24 259,-74 373,-112 360,-122 357,-121 447,-117 67,4 93,10 155,40 122,58 208,132 287,245 12,17 22,35 22,40 0,22 -492,269 -670,336 -165,63 -232,70 -358,37 z" id="path8"/>
            <path d="m 14493,12373 c 5,-32 10,-245 12,-473 2,-290 6,-428 15,-460 34,-125 115,-219 251,-293 74,-41 186,-87 209,-87 18,0 85,381 105,594 26,274 17,369 -43,479 -38,70 -141,161 -236,208 -76,37 -251,89 -301,89 -21,0 -21,-2 -12,-57 z" id="path9"/>
            <path d="m 7345,11477 c -125,-33 -220,-104 -294,-222 -45,-70 -74,-135 -66,-144 4,-3 66,-6 138,-6 h 132 l 70,40 c 68,39 73,40 156,38 103,-1 278,-47 363,-93 42,-23 78,-34 144,-41 132,-16 146,-10 209,92 57,91 103,213 87,228 -13,14 -367,79 -518,96 -206,22 -363,27 -421,12 z" id="path13"/>
            <path d="m 7860,12057 c -124,-42 -264,-167 -327,-291 -15,-28 -39,-89 -54,-136 l -27,-85 166,-12 c 169,-12 203,-17 507,-75 261,-49 378,-39 508,44 70,45 156,145 205,239 40,78 42,84 26,96 -30,22 -428,149 -617,198 -208,53 -284,57 -387,22 z" id="path11"/>
            <path d="m 15160,11893 c 0,-5 -7,-84 -15,-178 -13,-150 -46,-366 -88,-580 l -14,-70 110,53 c 154,74 213,92 300,92 88,0 151,-20 180,-57 l 21,-26 13,49 c 7,27 17,79 23,115 36,248 -155,497 -454,588 -77,24 -76,24 -76,14 z" id="path12"/>
            <path d="m 15705,11118 c -22,-89 -42,-169 -43,-176 -3,-12 8,-13 65,-8 94,10 226,40 302,69 l 63,24 -33,38 c -44,50 -177,149 -251,186 -32,16 -59,29 -60,29 -2,0 -21,-73 -43,-162 z" id="path16"/>
            <path d="m 6190,9503 c 0,-10 7,-57 16,-104 l 15,-85 130,55 c 71,30 129,57 129,60 0,3 -58,23 -128,45 -174,52 -162,50 -162,29 z" id="path48"/>
            <path d="m 6445,9351 c -198,-81 -257,-115 -322,-185 -135,-145 -164,-340 -92,-607 12,-43 25,-79 29,-79 4,0 71,38 148,84 78,46 256,141 396,212 141,70 253,131 249,134 -5,4 -46,12 -93,19 -117,17 -227,45 -306,78 -118,49 -135,110 -44,163 44,26 195,73 275,86 66,10 195,47 195,55 0,4 -18,10 -39,14 -21,3 -66,19 -98,35 -33,15 -75,31 -94,35 -19,3 -41,8 -49,10 -8,2 -78,-22 -155,-54 z" id="path55"/>
            <path d="m 16780,8912 c -25,-31 -172,-185 -327,-343 -253,-256 -286,-294 -315,-355 -46,-98 -51,-210 -14,-346 23,-89 78,-218 92,-218 8,0 235,153 319,215 97,72 281,223 335,276 175,170 203,380 86,633 -35,76 -111,196 -124,196 -4,-1 -27,-26 -52,-58 z" id="path66"/>
            <path d="m 6615,8724 c -284,-144 -508,-277 -570,-340 -95,-95 -135,-204 -135,-364 0,-114 17,-184 70,-294 58,-122 47,-119 137,-39 150,134 325,265 555,417 213,140 288,379 202,635 -16,47 -33,86 -39,88 -5,1 -104,-45 -220,-103 z" id="path67"/>
            <path d="m 16904,8099 c -26,-29 -258,-220 -319,-263 -27,-19 -121,-83 -209,-142 -185,-127 -233,-176 -279,-289 -30,-75 -32,-88 -32,-200 0,-105 4,-131 29,-207 15,-49 32,-88 37,-88 19,0 483,241 607,315 74,44 155,101 181,126 58,57 106,145 127,235 24,101 15,256 -20,347 -29,78 -85,187 -96,187 -4,0 -15,-9 -26,-21 z" id="path68"/>
            <path d="m 6574,7974 c -273,-188 -487,-366 -551,-462 -81,-120 -101,-247 -63,-398 22,-87 104,-260 147,-312 l 28,-33 134,151 c 73,82 210,223 303,313 94,89 190,188 214,221 90,120 106,273 49,456 -27,84 -72,180 -85,180 -4,0 -83,-52 -176,-116 z" id="path69"/>
            <path d="m 6524,7107 c -131,-133 -265,-274 -296,-313 -107,-132 -142,-248 -120,-400 15,-103 39,-168 88,-243 74,-112 182,-222 191,-194 8,22 165,269 238,371 41,59 116,159 166,222 124,155 152,216 157,341 5,115 -8,184 -52,275 -33,68 -113,184 -126,184 -4,0 -115,-109 -246,-243 z" id="path70"/>
            <path d="m 16850,7232 c -97,-63 -350,-200 -560,-305 -230,-114 -291,-161 -343,-270 -43,-89 -64,-255 -48,-369 9,-59 17,-88 26,-88 28,0 395,113 524,161 178,67 288,120 350,169 55,44 118,130 145,200 47,119 34,370 -26,508 l -13,29 z" id="path71"/>
            <path d="m 6843,6533 c -172,-216 -354,-489 -420,-630 -32,-66 -38,-89 -41,-164 -4,-70 0,-100 17,-156 30,-93 90,-191 168,-274 54,-57 152,-134 170,-134 3,0 24,47 47,105 46,113 193,411 286,580 32,58 66,134 76,170 23,87 21,199 -5,274 -26,73 -114,206 -179,269 l -49,48 z" id="path72"/>
            <path d="m 16620,6372 c -110,-48 -558,-197 -650,-217 -68,-14 -168,-76 -229,-140 -96,-104 -128,-191 -138,-378 l -6,-118 34,5 c 19,3 77,10 129,16 254,28 677,121 762,167 177,97 284,367 243,618 -8,54 -17,100 -18,100 -1,1 -58,-23 -127,-53 z" id="path73"/>
            <path d="m 7125,5852 c -82,-142 -254,-492 -295,-602 -37,-99 -44,-128 -48,-212 -3,-79 0,-110 17,-165 27,-90 84,-176 160,-244 66,-59 224,-159 250,-159 12,0 25,37 55,158 21,86 81,285 133,442 88,266 94,290 94,365 0,103 -22,165 -99,276 -55,79 -141,162 -203,194 -25,13 -26,13 -64,-53 z" id="path74"/>
            <path d="m 16340,5594 c -155,-39 -444,-92 -602,-109 -80,-8 -168,-22 -195,-30 -186,-55 -326,-253 -356,-501 l -5,-41 76,-7 c 118,-10 494,-7 641,5 210,16 297,53 405,170 95,103 142,235 153,437 5,84 4,102 -8,101 -8,-1 -57,-12 -109,-25 z" id="path75"/>
            <path d="m 7492,5193 c -44,-115 -125,-376 -174,-558 -49,-186 -56,-300 -24,-390 46,-128 187,-279 313,-336 50,-22 184,-69 198,-69 1,0 6,39 9,88 18,237 34,345 92,652 34,173 30,252 -17,366 -44,108 -144,208 -276,277 l -91,47 z" id="path76"/>
            <path d="m 15925,4859 c -49,-4 -248,-7 -442,-8 -216,-1 -372,-5 -405,-12 -133,-28 -238,-111 -316,-251 -57,-101 -96,-210 -78,-220 26,-14 393,-79 536,-94 80,-9 199,-16 265,-17 102,-2 130,1 185,21 123,43 216,135 290,287 63,130 103,308 68,303 -7,0 -53,-4 -103,-9 z" id="path77"/>
            <path d="m 8998,3873 c -14,-21 -86,-103 -160,-183 -74,-80 -139,-157 -143,-170 -5,-14 -7,-42 -6,-63 4,-80 -44,-150 -110,-164 -16,-3 -29,-11 -29,-18 0,-37 75,-156 133,-212 110,-106 232,-152 425,-160 91,-4 122,-3 122,6 0,7 -11,56 -24,109 -37,146 -84,405 -106,591 -20,159 -35,228 -64,279 l -12,23 z" id="path78"/>
            <path d="m 13825,3870 c -75,-18 -191,-85 -259,-149 -45,-42 -126,-148 -126,-165 0,-12 272,-160 460,-250 162,-77 316,-133 388,-142 59,-6 193,11 191,25 0,3 -17,33 -38,65 -42,68 -83,94 -163,105 -29,4 -63,14 -76,22 -35,22 -62,87 -61,145 1,28 -5,62 -12,76 -18,32 -253,278 -265,277 -5,-1 -22,-4 -39,-9 z" id="path79"/>
            <path d="m 9144,3674 c 18,-205 112,-681 159,-802 31,-81 120,-173 211,-217 115,-57 221,-79 346,-72 58,3 121,11 141,17 l 37,10 -59,140 c -50,121 -121,334 -213,640 -29,98 -73,167 -147,234 -98,88 -178,116 -353,123 l -129,6 z" id="path80"/>
            <path d="m 13070,3534 c -63,-17 -121,-49 -203,-111 -59,-46 -127,-111 -127,-123 0,-8 139,-119 265,-212 104,-76 400,-262 460,-289 179,-79 404,-17 592,164 69,66 131,154 117,166 -5,4 -43,20 -84,36 -96,36 -306,138 -534,259 -105,55 -205,101 -242,110 -77,20 -171,20 -244,0 z" id="path81"/>
            <path d="m 9852,3448 c -50,-11 -54,18 34,-273 57,-192 127,-376 199,-530 39,-82 134,-176 218,-215 134,-63 306,-66 505,-8 39,11 72,22 72,23 0,2 -29,49 -63,106 -80,131 -217,386 -307,574 -79,163 -136,232 -232,279 -100,49 -308,71 -426,44 z" id="path82"/>
            <path d="m 12280,3317 c -41,-13 -93,-33 -115,-44 -55,-29 -155,-104 -155,-117 0,-14 426,-437 525,-520 43,-37 113,-84 154,-104 73,-36 77,-37 190,-37 190,0 305,50 458,198 l 72,70 -167,104 c -144,91 -277,186 -524,377 -82,63 -153,88 -268,92 -79,4 -108,0 -170,-19 z" id="path83"/>
            <path d="m 10709,3288 c -24,-4 -76,-19 -116,-34 l -72,-26 24,-55 c 48,-108 212,-420 290,-552 44,-74 103,-158 130,-186 93,-96 209,-138 380,-138 125,0 185,16 317,85 l 77,40 -72,81 c -143,162 -219,263 -406,540 -80,118 -128,163 -213,202 -106,48 -220,63 -339,43 z" id="path84"/>
            <path d="m 11575,3254 c -158,-39 -239,-66 -292,-101 -22,-15 -22,-15 59,-136 118,-178 201,-287 332,-439 122,-142 154,-170 251,-215 55,-26 69,-28 175,-28 103,1 125,4 209,33 88,30 195,87 251,132 l 25,20 -75,67 c -132,118 -261,243 -429,415 -148,153 -171,172 -246,209 -71,35 -93,41 -161,44 -43,2 -88,2 -99,-1 z" id="path85"/>
            <path id="path86" d="m 7754.1357,2265.1025 c 0.2557,-0.992 0.4386,-2.0022 0.7032,-2.9882 0.4318,-1.609 3.7684,-5.3018 3.3984,-3.6768 -0.5733,2.52 -2.5336,4.5194 -4.0576,6.6064 -0.014,0.02 -0.03,0.039 -0.044,0.059 z"/>
        </g>
        <g id="rooster" fill="#000091">
            <path d="m 11535,12130 c -11,-4 -32,-23 -47,-42 -15,-18 -38,-46 -52,-63 l -24,-30 -46,51 c -58,65 -93,81 -133,61 -36,-19 -57,-58 -49,-90 3,-14 27,-51 53,-84 l 48,-58 -2,-96 c -1,-92 -14,-144 -33,-137 -5,2 -69,62 -142,133 -141,139 -229,215 -247,215 -15,0 -7,-18 111,-257 125,-251 138,-283 145,-344 8,-68 -5,-70 -212,-33 -76,14 -283,60 -314,70 -43,14 163,-153 327,-266 44,-30 87,-67 97,-83 27,-44 6,-84 -104,-199 -104,-109 -174,-207 -191,-267 -28,-101 2,-181 83,-223 33,-17 60,-22 128,-22 67,-1 91,-5 106,-18 56,-51 169,-72 237,-44 38,16 80,55 100,94 21,41 28,121 15,177 -30,135 -8,147 89,48 78,-80 122,-175 122,-265 0,-101 -74,-204 -179,-247 -125,-52 -245,-47 -360,15 -43,24 -72,33 -87,30 -12,-3 -61,-48 -108,-99 -135,-145 -204,-268 -255,-453 -22,-77 -37,-115 -53,-128 -105,-86 -191,-189 -234,-281 -36,-79 -58,-151 -49,-165 18,-28 172,86 236,175 18,25 36,45 40,45 13,0 28,-69 34,-160 3,-47 11,-132 17,-190 11,-108 8,-147 -27,-375 -32,-204 -37,-224 -90,-365 -53,-139 -57,-170 -19,-170 66,0 240,152 310,271 63,109 92,202 110,359 8,74 18,155 20,179 4,31 14,53 34,73 30,30 58,37 64,16 15,-53 29,-224 27,-325 -3,-166 15,-196 79,-132 47,48 104,137 130,204 18,49 24,86 27,195 2,74 6,141 9,149 7,22 28,-5 42,-55 14,-48 43,-71 101,-80 44,-7 48,-2 26,36 -28,49 -15,100 49,187 15,20 25,53 29,90 4,32 11,74 17,93 14,50 76,127 148,185 l 62,49 v 67 c 0,101 24,162 90,229 76,78 168,116 336,138 103,14 124,20 124,33 0,22 -99,310 -156,454 -194,493 -337,764 -487,922 -55,57 -81,76 -129,95 -34,13 -63,29 -65,35 -11,31 126,36 202,8 89,-33 157,-87 330,-260 190,-191 265,-241 370,-252 137,-14 243,94 191,195 -20,39 -49,58 -129,87 -63,23 -84,48 -48,60 65,20 105,99 77,154 -24,46 -64,52 -155,25 -29,-8 -56,-13 -59,-9 -3,3 13,24 36,48 22,23 48,58 56,79 14,34 14,38 -4,61 -30,38 -80,51 -177,43 -46,-3 -83,-3 -83,0 0,4 18,26 40,50 52,56 55,96 8,120 -76,39 -234,-39 -304,-150 -37,-58 -49,-64 -143,-72 -104,-9 -106,5 -12,80 115,92 174,209 138,276 -18,33 -54,30 -113,-9 -54,-37 -69,-39 -60,-8 4,12 10,40 13,62 4,33 1,44 -19,61 -29,27 -57,35 -83,24 z m -49,-904 c 28,-28 34,-42 34,-76 0,-105 -107,-163 -195,-106 -26,17 -55,69 -55,98 0,27 37,95 57,107 10,6 42,11 72,11 47,0 57,-4 87,-34 z m -917,-1843 c -24,-64 -143,-213 -170,-213 -5,0 -9,13 -9,29 0,32 88,164 142,215 26,24 32,26 40,13 5,-9 4,-27 -3,-44 z" id="path10"/>
            <path d="m 17840,11453 c -8,-3 -109,-52 -225,-109 -115,-56 -266,-126 -335,-154 -131,-54 -466,-172 -535,-188 -22,-5 -76,-20 -120,-32 -207,-57 -464,-112 -585,-125 -36,-4 -76,-12 -90,-17 -13,-5 -60,-13 -105,-19 -137,-16 -269,-41 -282,-51 -22,-18 -15,-47 12,-54 32,-8 262,0 508,17 174,12 188,12 204,-4 23,-23 10,-46 -40,-70 -76,-38 -395,-82 -732,-101 -121,-7 -228,-16 -237,-20 -24,-11 -23,-33 3,-46 55,-30 688,-30 924,0 259,32 492,89 608,148 93,46 173,111 297,239 112,116 137,136 238,194 230,131 424,249 468,285 55,45 83,92 62,105 -15,10 -17,10 -38,2 z" id="path14"/>
            <path d="m 5070,11428 c 0,-53 170,-171 522,-364 97,-53 122,-72 245,-197 76,-76 166,-158 199,-183 140,-99 379,-166 754,-211 108,-12 223,-17 450,-17 320,1 406,6 436,29 17,13 18,15 3,30 -12,13 -63,19 -262,30 -351,21 -644,62 -727,103 -45,22 -52,57 -15,74 20,9 60,9 178,-2 84,-7 235,-15 338,-17 161,-4 187,-3 198,11 31,37 -21,58 -197,81 -570,76 -1169,235 -1587,420 -16,7 -52,23 -80,35 -27,12 -130,62 -227,111 -186,93 -228,106 -228,67 z" id="path15"/>
            <path d="m 7461,11036 c -11,-13 -11,-22 0,-48 18,-44 168,-199 237,-245 183,-121 424,-159 952,-151 215,4 310,2 349,-7 74,-18 167,-84 286,-206 170,-173 245,-233 386,-308 168,-89 340,-131 539,-131 80,0 100,3 100,14 0,18 -44,33 -135,45 -152,22 -354,97 -453,170 -35,26 -43,37 -40,59 5,44 37,38 165,-28 120,-61 207,-90 275,-90 66,0 59,42 -10,55 -72,13 -158,49 -237,98 -107,66 -142,95 -332,278 -161,156 -259,231 -358,274 -116,52 -144,56 -435,60 -505,8 -753,37 -1075,126 -189,53 -198,54 -214,35 z" id="path17"/>
            <path d="m 15370,11028 c -354,-107 -622,-143 -1155,-154 -304,-6 -369,-16 -478,-70 -109,-56 -159,-95 -347,-278 -69,-67 -149,-141 -178,-165 -108,-89 -253,-169 -333,-186 -75,-15 -99,-26 -99,-47 0,-20 4,-21 73,-15 81,7 142,28 261,91 97,51 127,60 150,43 25,-19 12,-40 -53,-86 -111,-78 -279,-139 -441,-162 -47,-6 -98,-18 -114,-27 -29,-14 -29,-15 -10,-29 23,-17 183,-10 304,13 269,52 458,163 705,414 225,229 214,225 655,221 186,-1 386,3 450,9 307,29 472,99 633,270 84,88 99,112 95,147 -4,36 -30,38 -118,11 z" id="path18"/>
            <path d="m 5351,10596 c -18,-21 2,-46 73,-94 118,-80 302,-153 531,-212 146,-37 202,-63 280,-130 72,-62 176,-132 230,-155 86,-36 237,-77 380,-101 130,-22 179,-25 372,-25 226,0 279,5 548,42 164,23 185,30 185,59 0,12 -7,20 -17,20 -10,0 -169,2 -353,4 -326,3 -465,12 -659,42 -110,17 -145,31 -149,61 -6,43 22,47 358,53 321,6 360,11 360,46 0,24 -40,32 -217,43 -224,14 -421,30 -458,36 -16,2 -102,14 -190,25 -335,42 -652,114 -1035,233 -227,70 -225,70 -239,53 z" id="path19"/>
            <path d="m 17445,10569 c -71,-22 -159,-48 -195,-59 -320,-98 -693,-175 -1040,-215 -121,-13 -345,-32 -620,-50 -98,-7 -144,-24 -134,-49 3,-8 15,-17 27,-21 12,-4 167,-10 344,-14 279,-5 325,-8 339,-22 50,-51 -47,-91 -261,-109 -301,-26 -403,-30 -643,-29 -261,1 -294,-3 -261,-36 29,-29 336,-75 564,-84 384,-15 699,28 913,125 77,35 175,100 252,167 66,58 119,80 280,121 80,20 161,42 180,50 19,8 70,28 113,46 178,71 297,150 297,196 0,13 -6,24 -12,23 -7,0 -71,-18 -143,-40 z" id="path20"/>
            <path d="m 8465,10475 c -5,-2 -27,-6 -47,-10 -42,-7 -50,-28 -20,-51 42,-34 126,-77 193,-99 93,-32 279,-56 377,-49 160,11 159,25 -3,49 -145,21 -297,53 -308,64 -6,6 -7,17 -3,27 6,15 20,16 154,10 172,-9 180,2 30,40 -76,20 -117,24 -228,23 -74,0 -139,-2 -145,-4 z" id="path21"/>
            <path d="m 14185,10474 c -117,-24 -198,-55 -178,-67 5,-3 41,-1 81,4 102,14 206,8 210,-12 5,-25 -42,-39 -246,-72 -113,-19 -191,-36 -189,-42 2,-5 44,-13 93,-16 113,-7 302,15 405,47 83,26 204,99 204,124 0,26 -74,38 -220,38 -77,0 -149,-2 -160,-4 z" id="path22"/>
            <path d="m 7730,10346 c -47,-8 -93,-17 -102,-21 -74,-30 113,-144 312,-191 114,-26 386,-25 474,2 36,12 -2,24 -154,49 -174,29 -301,55 -313,65 -4,4 -5,15 -1,25 6,16 20,17 147,14 164,-5 188,7 81,41 -88,27 -321,35 -444,16 z" id="path23"/>
            <path d="m 14827,10344 c -90,-20 -117,-31 -117,-48 0,-13 20,-15 146,-9 l 146,6 -4,-24 c -4,-27 6,-25 -272,-74 -110,-20 -202,-38 -205,-41 -37,-36 326,-51 479,-20 47,10 117,32 155,48 75,33 185,103 185,118 0,48 -352,78 -513,44 z" id="path24"/>
            <path d="m 12555,9703 c 53,-98 149,-194 256,-256 58,-34 83,-36 74,-4 -15,49 -71,133 -131,196 -57,60 -124,112 -124,95 0,-3 25,-33 55,-66 74,-80 91,-106 77,-120 -14,-14 -88,51 -161,140 -29,34 -56,62 -62,62 -6,0 1,-21 16,-47 z" id="path42"/>
            <path d="m 8320,10276 c 0,-15 21,-23 120,-45 56,-13 60,-13 60,-2 0,5 -30,18 -67,29 -113,35 -113,35 -113,18 z" id="path25"/>
            <path d="m 14512,10256 c -73,-27 -85,-36 -51,-36 41,1 162,35 167,48 6,19 -46,13 -116,-12 z" id="path26"/>
            <path d="m 8908,10165 c -161,-30 -260,-78 -218,-105 8,-6 51,-22 95,-36 114,-38 287,-44 440,-16 123,23 165,36 165,53 0,7 -11,9 -32,5 -18,-4 -113,-9 -210,-13 -161,-5 -178,-4 -184,12 -4,9 0,23 9,32 13,13 50,17 196,21 100,3 181,8 181,13 0,37 -303,60 -442,34 z" id="path27"/>
            <path d="m 13760,10174 c -64,-8 -170,-36 -170,-45 0,-5 51,-10 113,-10 270,-3 305,-9 281,-47 -10,-15 -31,-17 -170,-17 -87,0 -180,3 -206,7 -38,6 -48,5 -48,-6 0,-26 221,-66 371,-66 141,0 324,47 337,87 15,49 -342,117 -508,97 z" id="path28"/>
            <path d="m 9450,9959 c -104,-12 -216,-46 -306,-90 -158,-78 -144,-94 79,-93 147,0 170,3 252,28 102,31 245,94 245,109 0,5 -10,6 -22,3 -235,-67 -411,-99 -453,-82 -14,5 -15,9 -5,21 14,17 94,41 248,76 62,14 97,26 90,31 -15,9 -38,8 -128,-3 z" id="path29"/>
            <path d="m 13375,9950 c 11,-4 65,-18 120,-30 180,-39 233,-59 219,-81 -17,-28 -199,-1 -393,57 -79,24 -106,25 -85,4 20,-20 207,-90 294,-111 73,-17 114,-20 225,-17 106,2 138,6 145,18 13,21 -2,34 -83,73 -93,44 -115,52 -214,77 -81,20 -272,29 -228,10 z" id="path30"/>
            <path d="m 12555,9703 c 53,-98 149,-194 256,-256 58,-34 83,-36 74,-4 -15,49 -71,133 -131,196 -57,60 -124,112 -124,95 0,-3 25,-33 55,-66 74,-80 91,-106 77,-120 -14,-14 -88,51 -161,140 -29,34 -56,62 -62,62 -6,0 1,-21 16,-47 z" id="path42"/>
            <path d="m 8400,9940 c -163,-11 -380,-71 -380,-107 0,-18 74,-50 189,-79 119,-31 271,-32 424,-5 58,11 111,22 117,26 26,16 -10,25 -108,26 -238,2 -335,20 -290,53 24,17 305,29 423,17 50,-5 94,-6 98,-2 11,10 -121,48 -208,60 -116,16 -155,18 -265,11 z" id="path31"/>
            <path d="m 14265,9926 c -100,-17 -195,-44 -195,-57 0,-9 74,-6 174,7 22,3 107,2 188,-2 134,-6 150,-9 159,-27 7,-12 7,-23 1,-29 -5,-5 -97,-12 -206,-15 -134,-4 -196,-10 -196,-17 0,-21 151,-48 296,-53 164,-6 271,10 372,57 101,47 82,67 -108,117 -118,31 -357,40 -485,19 z" id="path32"/>
            <path d="m 17085,9842 c -22,-1 -87,-11 -145,-22 -139,-26 -349,-56 -540,-77 -219,-24 -785,-24 -1035,0 -99,9 -200,19 -225,21 -151,13 -162,-57 -13,-84 37,-6 109,-20 158,-30 50,-10 131,-23 180,-29 131,-16 189,-32 193,-55 6,-30 -13,-39 -100,-46 -145,-12 -612,24 -813,62 -163,30 -221,34 -228,14 -4,-10 2,-21 16,-30 46,-31 381,-124 612,-171 77,-16 300,-35 405,-35 275,1 440,41 647,159 72,41 194,81 245,81 h 28 l -27,-42 c -14,-24 -66,-98 -114,-165 -48,-68 -91,-128 -95,-134 -5,-9 8,-10 50,-5 92,12 155,-1 193,-39 20,-20 33,-43 33,-58 0,-14 5,-29 10,-32 6,-3 10,-23 10,-43 0,-31 -8,-46 -50,-89 -64,-67 -108,-80 -305,-95 -85,-6 -153,-16 -158,-22 -12,-18 3,-144 26,-225 19,-68 73,-163 135,-240 l 19,-24 183,179 c 231,226 398,416 438,497 82,166 54,397 -65,554 l -24,31 58,12 c 71,15 259,78 293,99 38,23 70,53 70,67 0,16 -16,20 -65,16 z" id="path33"/>
            <path d="m 5797,9834 c -3,-4 -2,-15 4,-25 34,-64 302,-154 574,-194 266,-39 263,-38 435,-133 167,-92 368,-128 660,-119 260,8 455,44 784,143 155,46 183,61 173,88 -9,22 -39,20 -186,-8 -214,-42 -668,-78 -843,-69 -108,6 -129,17 -101,52 19,23 47,29 258,61 295,45 365,64 365,99 0,11 -5,23 -11,27 -18,11 -135,6 -299,-13 -122,-13 -238,-17 -545,-17 -435,0 -583,12 -981,80 -196,33 -274,41 -287,28 z" id="path34"/>
            <path d="m 9689,9800 c -97,-30 -205,-90 -271,-151 -52,-48 -60,-60 -48,-68 8,-6 31,-8 50,-5 182,31 260,59 379,139 63,42 113,85 99,85 -3,0 -61,-26 -129,-59 -220,-103 -249,-114 -249,-89 0,27 43,53 240,146 43,20 43,21 15,20 -16,0 -55,-8 -86,-18 z" id="path35"/>
            <path d="m 13277,9756 c 127,-62 174,-99 140,-112 -16,-6 -128,41 -274,115 -57,28 -103,47 -103,42 0,-5 24,-26 53,-48 130,-100 270,-158 405,-169 103,-9 107,4 26,71 -74,60 -172,114 -258,142 -132,43 -127,25 11,-41 z" id="path36"/>
            <path d="m 10585,9713 c -43,-87 -92,-163 -106,-163 -20,0 -7,53 31,125 44,83 39,97 -12,33 -54,-68 -66,-92 -88,-172 -33,-118 -14,-126 77,-33 33,34 71,82 83,107 31,62 71,180 60,180 -4,0 -25,-34 -45,-77 z" id="path37"/>
            <path d="m 12320,9774 c -1,-59 87,-232 142,-279 34,-30 71,-55 82,-55 18,0 -6,107 -39,175 -37,75 -89,144 -100,133 -4,-4 14,-45 40,-92 41,-76 45,-87 29,-93 -24,-9 -54,30 -109,142 -24,50 -45,81 -45,69 z" id="path38"/>
            <path d="m 10055,9757 c -109,-43 -238,-141 -290,-220 -26,-41 -10,-50 60,-32 112,28 219,90 308,175 45,44 78,82 74,86 -3,4 -32,-13 -64,-37 -110,-83 -227,-159 -245,-159 -11,0 -18,7 -18,19 0,18 96,95 200,159 38,23 24,28 -25,9 z" id="path39"/>
            <path d="m 12740,9762 c 0,-17 109,-120 168,-159 70,-47 188,-98 250,-108 36,-6 42,-4 42,11 0,29 -157,175 -228,213 -59,31 -122,54 -122,46 0,-2 21,-19 48,-36 119,-82 172,-125 172,-143 0,-38 -69,-3 -226,115 -89,68 -104,77 -104,61 z" id="path40"/>
            <path d="m 10370,9713 c -35,-52 -158,-173 -175,-173 -8,0 -15,7 -15,14 0,15 79,115 119,150 31,28 26,40 -10,19 -74,-43 -199,-200 -224,-280 -13,-44 44,-24 151,54 84,61 229,253 192,253 -7,0 -24,-17 -38,-37 z" id="path41"/>
            <path d="m 12212,9645 c 13,-63 7,-260 -9,-277 -28,-27 -38,9 -41,152 -3,133 -11,168 -26,118 -15,-49 -19,-238 -7,-299 16,-77 50,-151 70,-147 8,2 28,35 45,73 28,64 30,80 30,175 0,85 -5,118 -25,174 -29,82 -52,102 -37,31 z" id="path43"/>
            <path d="m 8958,9659 c -116,-17 -242,-60 -343,-118 -157,-89 -139,-115 75,-114 118,0 237,28 358,85 141,65 120,74 -65,27 -160,-41 -237,-49 -247,-24 -3,9 4,20 22,29 45,23 220,66 342,84 63,9 115,22 115,27 0,13 -180,16 -257,4 z" id="path44"/>
            <path d="m 13730,9661 c 0,-16 10,-19 115,-31 116,-13 316,-65 347,-90 29,-23 15,-40 -32,-40 -32,0 -197,38 -329,76 -18,5 -23,4 -19,-7 12,-37 271,-130 398,-143 68,-7 208,8 224,24 16,16 -28,53 -122,102 -156,83 -299,118 -474,118 -61,0 -108,-4 -108,-9 z" id="path45"/>
            <path d="m 9476,9520 c -49,-11 -114,-29 -145,-41 -136,-55 -322,-196 -308,-233 7,-17 15,-18 86,-12 147,13 267,59 416,160 75,51 55,58 -46,16 -222,-93 -259,-102 -259,-66 0,8 10,22 22,30 41,29 205,96 301,123 53,15 97,31 97,35 0,13 -68,8 -164,-12 z" id="path46"/>
            <path d="m 13310,9531 c 0,-10 7,-13 80,-31 125,-31 324,-119 335,-148 18,-49 -47,-35 -239,48 -61,27 -112,47 -115,45 -17,-17 149,-122 261,-165 45,-17 117,-35 171,-42 140,-17 157,-3 83,68 -63,60 -155,120 -238,156 -130,55 -338,97 -338,69 z" id="path47"/>
            <path d="m 12358,9484 c 6,-11 20,-28 32,-39 59,-53 180,-230 180,-263 0,-42 -96,41 -165,142 -43,63 -57,60 -30,-6 44,-111 148,-229 246,-279 49,-24 49,-24 49,10 0,67 -89,243 -162,321 -26,27 -125,112 -146,124 -11,7 -12,4 -4,-10 z" id="path49"/>
            <path d="m 9836,9439 c -133,-46 -217,-100 -328,-211 -138,-136 -134,-157 24,-119 93,22 207,88 297,171 103,96 70,99 -65,4 -90,-63 -144,-88 -157,-75 -8,8 -9,16 -1,29 22,34 147,120 244,168 92,46 118,64 88,64 -7,0 -53,-14 -102,-31 z" id="path50"/>
            <path d="m 13010,9456 c 14,-8 57,-31 97,-53 90,-47 222,-139 230,-158 3,-8 3,-22 -1,-30 -8,-22 -50,-3 -170,79 -53,36 -101,66 -107,66 -31,0 73,-103 166,-164 97,-65 282,-123 309,-96 22,22 -106,161 -212,231 -110,72 -262,139 -317,138 -18,0 -17,-1 5,-13 z" id="path51"/>
            <path d="m 10209,9411 c -124,-61 -223,-146 -301,-256 -34,-48 -78,-127 -78,-141 0,-4 19,-4 42,0 57,9 173,77 239,140 65,62 152,173 146,189 -2,6 -46,-27 -98,-74 -144,-130 -169,-144 -169,-97 0,26 116,136 215,206 44,30 82,57 84,59 2,2 2,5 0,7 -3,3 -39,-12 -80,-33 z" id="path52"/>
            <path d="m 12660,9441 c 0,-4 33,-31 73,-59 107,-74 227,-190 227,-218 0,-13 -6,-24 -13,-24 -14,0 -108,76 -197,158 -87,81 -94,70 -19,-30 96,-128 239,-234 342,-253 32,-6 37,-5 37,11 0,30 -85,153 -153,222 -34,34 -91,82 -127,106 -79,53 -170,100 -170,87 z" id="path53"/>
            <path d="m 11847,9422 c -21,-23 -87,-182 -126,-306 -34,-106 -57,-280 -46,-351 10,-62 45,-165 73,-215 43,-76 112,-151 136,-148 20,3 21,10 28,198 6,181 23,344 48,465 36,175 36,175 -5,175 -26,0 -37,-25 -75,-180 -23,-92 -38,-117 -66,-106 -15,6 -16,17 -11,94 4,48 22,149 42,224 19,76 35,144 35,153 0,20 -13,19 -33,-3 z" id="path54"/>
            <path d="m 8165,9359 c -468,-155 -786,-208 -1340,-224 -250,-7 -305,-12 -312,-31 -21,-56 151,-91 497,-103 185,-6 245,-11 280,-25 125,-48 222,-66 360,-66 315,-1 592,70 935,240 185,92 275,148 275,171 0,16 -47,10 -117,-16 -82,-31 -217,-79 -295,-106 -90,-30 -259,-69 -304,-69 -40,0 -74,22 -74,48 0,19 50,51 133,82 143,55 193,93 166,126 -19,23 -76,15 -204,-27 z" id="path56"/>
            <path d="m 14573,9384 c -14,-37 23,-63 166,-120 52,-21 103,-46 113,-56 27,-27 23,-54 -12,-68 -57,-23 -272,31 -598,151 -73,27 -137,47 -143,44 -37,-23 25,-68 249,-180 182,-91 246,-117 392,-159 225,-66 400,-90 596,-84 128,5 147,8 249,43 l 110,38 226,8 c 316,11 509,46 509,94 0,26 -38,32 -255,39 -251,8 -464,21 -599,36 -205,23 -541,105 -900,221 -46,15 -96,11 -103,-7 z" id="path57"/>
            <path d="m 16204,9336 c -21,-18 -61,-47 -89,-64 l -50,-32 45,1 c 44,0 46,2 93,64 26,36 46,65 44,65 -2,0 -21,-15 -43,-34 z" id="path58"/>
            <path d="m 9209,9135 c -35,-24 -122,-83 -194,-131 -121,-82 -167,-112 -271,-177 -93,-58 -184,-77 -184,-38 0,21 10,30 155,133 120,85 200,152 223,186 15,23 15,25 -2,37 -23,17 -64,4 -126,-40 -188,-133 -629,-372 -813,-440 -105,-40 -137,-59 -137,-84 0,-26 38,-40 146,-52 116,-13 251,1 369,38 103,32 259,99 310,133 22,15 59,37 82,49 114,57 533,388 533,420 0,21 -28,11 -91,-34 z" id="path59"/>
            <path d="m 13650,9166 c 0,-37 389,-342 565,-443 270,-155 526,-223 733,-194 81,12 142,33 142,49 -1,24 -26,38 -155,88 -155,59 -488,238 -698,373 -148,95 -177,111 -204,111 -27,0 -36,-14 -28,-40 7,-23 136,-131 244,-205 40,-27 89,-64 109,-82 35,-30 36,-33 19,-50 -17,-17 -19,-17 -68,1 -65,23 -135,64 -354,209 -126,84 -168,113 -229,160 -51,39 -76,46 -76,23 z" id="path60"/>
            <path d="m 12075,9140 c -11,-17 -24,-205 -24,-345 -1,-305 73,-519 235,-677 56,-55 140,-117 177,-131 9,-3 17,-10 17,-14 0,-5 -27,-32 -60,-62 -69,-60 -99,-111 -107,-182 -5,-46 -11,-54 -72,-108 -37,-33 -82,-82 -101,-111 -27,-40 -47,-57 -89,-76 -29,-13 -58,-24 -63,-24 -19,0 -135,-89 -162,-124 l -27,-36 -87,6 c -167,12 -303,-31 -409,-129 l -32,-30 -38,23 c -172,102 -239,124 -378,123 -61,0 -118,-6 -146,-15 -26,-9 -51,-13 -57,-9 -5,3 -28,43 -51,89 -50,100 -90,145 -183,208 -92,63 -103,81 -139,224 -9,35 -26,60 -78,111 -56,55 -70,77 -93,141 -16,41 -28,82 -28,90 0,8 16,30 36,49 80,76 169,199 230,320 34,68 49,104 119,297 39,105 75,256 75,310 0,83 -23,61 -50,-48 -29,-118 -143,-380 -217,-497 -39,-63 -68,-82 -91,-59 -14,14 -11,25 27,118 58,140 103,284 99,316 -2,19 -10,28 -24,30 -26,4 -52,-30 -77,-99 -25,-66 -174,-366 -240,-482 -31,-53 -86,-140 -124,-193 -107,-150 -101,-135 -76,-191 12,-26 25,-77 29,-113 3,-36 15,-85 25,-109 13,-31 19,-67 19,-125 0,-112 23,-200 64,-250 38,-47 49,-75 37,-94 -8,-13 -105,-33 -226,-47 -33,-3 -94,-15 -135,-25 -41,-11 -115,-29 -165,-40 -49,-12 -108,-28 -130,-36 -37,-13 -198,-53 -305,-75 -44,-9 -197,-76 -479,-210 -79,-38 -146,-69 -148,-69 -18,0 -88,-70 -122,-122 -40,-59 -41,-62 -41,-147 0,-99 25,-271 71,-486 38,-181 38,-182 90,-247 88,-114 198,-197 322,-243 26,-10 50,-21 52,-25 14,-22 56,-216 74,-336 49,-330 50,-919 2,-967 -9,-9 -75,-12 -239,-12 -258,-1 -304,-10 -374,-73 -46,-41 -67,-78 -76,-134 -6,-35 -12,-42 -46,-56 -32,-13 -39,-13 -47,-1 -20,33 44,174 99,217 74,58 114,72 232,79 127,7 125,4 91,112 -36,117 -106,197 -236,272 -61,36 -149,73 -197,84 -32,8 -28,21 -72,-220 -48,-261 -60,-373 -61,-565 0,-136 3,-173 18,-212 l 18,-46 44,44 c 53,53 143,112 282,185 57,30 103,56 103,59 0,3 -27,20 -60,37 -58,30 -61,43 -9,43 29,0 119,-53 117,-69 -2,-7 -58,-42 -126,-77 -109,-55 -201,-117 -225,-149 -13,-19 -27,-83 -21,-99 9,-23 23,-20 68,14 57,43 90,47 127,16 43,-36 85,-34 145,7 27,18 70,48 95,65 79,54 107,34 47,-33 -21,-25 -33,-32 -39,-24 -5,9 -27,-4 -74,-41 -109,-86 -180,-101 -238,-50 -19,17 -41,30 -48,30 -8,0 -36,-14 -64,-32 l -50,-31 50,-44 c 27,-24 88,-62 134,-85 80,-40 84,-41 97,-23 8,10 14,24 14,31 0,7 4,15 8,18 5,3 7,-8 4,-23 -2,-16 5,-49 16,-75 18,-39 25,-46 49,-46 22,0 32,8 48,37 26,49 72,79 132,86 99,11 123,38 123,133 0,66 11,85 115,194 97,101 163,185 187,237 27,57 57,79 126,93 31,7 77,21 101,31 l 44,19 26,-24 c 14,-14 49,-30 76,-36 74,-17 107,-31 140,-58 l 30,-25 3,77 c 3,90 -15,131 -77,171 -33,21 -161,55 -210,55 -43,0 -74,24 -98,78 -27,62 -30,128 -8,216 28,108 31,113 83,120 133,18 337,105 444,189 122,95 207,230 115,182 -106,-55 -293,-110 -475,-140 -153,-25 -152,-26 -172,184 -13,137 -13,420 1,459 7,21 22,35 48,45 107,43 144,177 76,279 -14,22 -24,45 -22,52 3,6 31,20 63,30 33,10 82,30 109,44 51,25 217,134 268,174 22,18 31,20 45,12 29,-18 26,-67 -7,-126 -17,-30 -31,-68 -31,-84 0,-19 31,-77 94,-176 117,-185 138,-246 144,-413 2,-66 -1,-169 -8,-230 -6,-60 -14,-180 -17,-265 -5,-141 -4,-157 13,-177 l 19,-22 1240,-3 c 1156,-3 2077,5 2170,19 54,7 75,20 75,43 0,25 30,26 89,5 22,-8 69,-19 104,-25 92,-16 93,-17 110,-63 36,-99 46,-209 25,-279 -18,-60 -53,-84 -134,-91 -141,-12 -219,-53 -255,-132 -20,-44 -26,-150 -8,-160 6,-4 27,9 46,29 26,26 45,36 67,36 50,0 101,18 126,45 27,29 41,31 73,11 12,-8 57,-21 100,-31 87,-18 105,-32 144,-110 32,-62 74,-116 183,-228 47,-49 90,-98 97,-110 7,-12 12,-48 13,-81 0,-52 3,-61 34,-92 23,-23 43,-34 63,-34 77,0 127,-33 170,-113 15,-26 31,-46 36,-44 19,6 57,93 57,130 0,38 -15,81 -46,127 -9,14 -3,9 14,-10 17,-19 45,-63 63,-97 26,-52 31,-70 27,-111 -3,-27 -12,-63 -21,-82 -10,-18 -17,-35 -17,-37 0,-8 73,39 118,75 75,61 210,255 199,286 -6,14 -127,76 -149,76 -8,0 -23,-10 -34,-21 -51,-57 -119,-43 -240,47 -47,35 -90,64 -95,64 -14,0 -11,-16 6,-30 8,-7 15,-17 15,-23 0,-15 -69,65 -70,81 -1,27 52,10 115,-39 67,-51 120,-79 151,-79 9,0 32,14 51,30 18,17 39,30 46,30 7,0 40,-18 75,-40 34,-22 65,-40 67,-40 3,0 5,22 5,50 0,77 -43,115 -258,225 -73,37 -112,63 -110,72 4,21 114,77 135,69 13,-5 5,-13 -35,-31 -29,-13 -52,-28 -52,-32 0,-4 67,-43 149,-86 166,-87 271,-170 271,-213 0,-23 3,-24 68,-24 229,0 440,196 525,486 l 15,50 -163,12 c -166,12 -364,42 -599,89 -138,27 -221,27 -287,0 l -34,-14 75,-7 c 93,-10 145,-32 205,-87 51,-47 70,-78 91,-151 15,-50 13,-68 -11,-68 -37,0 -65,25 -86,78 -27,65 -75,117 -138,146 -43,20 -60,21 -270,19 -252,-3 -271,1 -291,62 -15,46 -15,538 0,729 18,239 70,497 107,539 9,9 24,17 33,17 41,0 163,74 238,145 86,81 127,134 143,186 41,130 98,453 106,596 6,118 5,122 -20,165 -64,108 -84,123 -347,251 -392,191 -360,178 -545,217 -55,12 -183,42 -285,67 -217,53 -287,68 -355,77 -28,4 -56,11 -63,15 -7,4 -21,54 -32,112 -12,57 -37,169 -58,249 -31,124 -37,165 -40,283 -3,91 0,137 6,137 6,0 42,-16 80,-35 80,-40 200,-71 215,-56 17,17 0,53 -64,141 -114,154 -292,477 -378,683 -47,112 -65,135 -96,123 -30,-11 -13,-95 55,-270 33,-87 60,-168 58,-179 -4,-32 -34,-32 -62,-2 -52,55 -245,484 -246,544 -1,28 -39,103 -50,96 -16,-10 -12,-41 20,-170 81,-332 203,-591 357,-758 29,-32 53,-62 53,-68 0,-5 -18,-9 -39,-9 -53,0 -187,-43 -234,-76 -21,-14 -40,-24 -41,-22 -1,1 -14,35 -29,73 -71,188 -123,420 -156,703 -19,162 -28,192 -61,192 -33,0 -41,-45 -39,-227 1,-95 -1,-176 -4,-180 -4,-3 -17,-2 -30,4 -40,19 -67,146 -96,462 -10,101 -21,136 -36,111 z M 10018,7970 c 29,-57 25,-81 -16,-102 -18,-9 -41,-23 -51,-32 -23,-21 -57,-20 -65,1 -4,9 -4,42 0,72 5,42 14,62 35,84 40,40 68,33 97,-23 z m 2699,-35 c -10,-108 -38,-143 -137,-171 -30,-9 -79,-25 -109,-35 -59,-22 -77,-16 -68,23 18,67 236,247 301,248 17,0 18,-6 13,-65 z m -2548,-173 c 18,-13 26,-29 26,-48 0,-26 -4,-30 -40,-34 -22,-3 -47,-10 -57,-15 -29,-17 -75,-83 -103,-150 -16,-36 -32,-65 -37,-65 -27,0 -37,130 -17,205 14,50 40,83 87,113 44,27 100,25 141,-6 z m 2527,-77 c 7,-16 -76,-149 -110,-178 -11,-10 -31,-22 -44,-27 -35,-15 -299,-22 -308,-9 -24,39 74,100 281,175 154,57 173,61 181,39 z m 103,-92 c 6,-16 20,-71 30,-123 90,-436 144,-631 312,-1127 38,-110 88,-245 111,-300 22,-54 42,-113 42,-132 l 1,-34 -110,-39 c -69,-24 -113,-34 -119,-28 -6,6 1,34 19,76 33,77 30,86 -35,124 -24,14 -45,31 -47,37 -2,6 21,30 51,52 30,22 57,49 61,60 4,13 -31,133 -93,318 -54,164 -140,426 -191,583 -51,157 -101,309 -112,338 -10,29 -19,63 -19,76 0,30 60,146 75,146 7,0 18,-12 24,-27 z m -2569,-33 c 37,-26 45,-52 27,-87 -8,-15 -21,-58 -30,-95 -13,-61 -13,-76 3,-177 20,-119 40,-182 95,-291 20,-39 33,-75 30,-80 -16,-26 -102,6 -159,59 -38,35 -99,126 -120,181 -60,152 -46,337 34,464 25,39 35,46 61,46 17,0 44,-9 59,-20 z m 163,-131 c 47,-25 100,-99 178,-253 147,-291 249,-419 482,-608 48,-39 87,-76 87,-82 0,-18 -49,-61 -98,-86 -50,-26 -105,-23 -180,10 -78,35 -324,309 -419,466 -108,179 -162,413 -119,515 22,53 31,58 69,38 z m 2166,-73 c 7,-39 -22,-125 -58,-173 -42,-55 -134,-123 -167,-123 -23,0 -109,28 -174,57 -19,8 -82,34 -140,57 -93,37 -105,44 -105,66 0,31 57,70 148,100 74,24 229,38 397,36 86,-1 95,-3 99,-20 z m 236,-473 c 75,-230 147,-446 158,-480 30,-87 18,-97 -62,-48 -89,55 -86,49 -71,176 15,131 19,125 -102,184 -45,22 -85,47 -91,55 -6,11 -1,36 18,84 l 27,68 -23,24 c -12,13 -44,38 -70,56 -27,18 -51,39 -54,47 -3,7 11,38 30,67 32,47 60,108 79,167 3,9 10,17 15,17 5,0 71,-188 146,-417 z m -925,249 c 52,-17 127,-42 165,-56 39,-15 93,-34 120,-43 86,-26 165,-72 165,-95 0,-18 -84,-98 -143,-137 -34,-22 -89,-47 -122,-56 -60,-16 -60,-16 -150,13 -227,75 -545,245 -545,292 0,29 99,90 177,110 71,18 229,4 333,-28 z m -874,7 c 80,-25 125,-49 249,-134 240,-166 512,-301 676,-336 34,-8 49,-17 58,-35 10,-23 6,-30 -57,-92 -53,-52 -80,-71 -122,-84 -159,-50 -354,-23 -543,73 -82,41 -214,144 -306,238 -119,121 -260,323 -248,355 15,38 190,47 293,15 z m -1014,-86 c 8,-10 30,-47 49,-83 22,-43 63,-94 118,-148 56,-56 80,-87 74,-93 -6,-6 -32,-25 -59,-42 -27,-18 -50,-41 -52,-51 -2,-10 8,-50 23,-87 14,-38 24,-76 21,-86 -3,-10 -31,-38 -61,-62 -30,-24 -55,-52 -55,-62 0,-10 20,-43 45,-74 25,-30 65,-80 90,-110 25,-31 45,-60 45,-65 0,-5 -22,-30 -50,-56 -29,-28 -50,-56 -50,-68 0,-13 30,-52 80,-101 54,-54 80,-87 80,-103 0,-23 -82,-154 -116,-184 -25,-21 -113,-68 -130,-68 -8,0 -24,35 -40,88 -27,91 -66,168 -146,291 -26,40 -48,81 -48,90 0,9 14,39 30,66 16,28 30,61 30,75 0,14 -23,80 -51,147 -59,139 -59,154 1,195 56,39 53,62 -20,178 -33,52 -60,100 -60,106 0,7 19,27 43,45 71,55 107,92 107,111 0,10 -12,37 -27,59 -33,50 -26,66 43,90 65,22 68,22 86,2 z m 2552,-132 30,-31 -18,-69 c -29,-112 -30,-111 107,-171 81,-36 92,-56 77,-138 -5,-31 -10,-74 -10,-97 0,-49 11,-61 108,-121 80,-48 84,-63 52,-185 -24,-95 -24,-97 62,-140 33,-16 61,-36 64,-44 13,-32 -152,-348 -183,-353 -21,-3 -169,107 -180,133 -3,8 7,29 21,46 44,52 37,65 -77,162 -39,33 -57,55 -57,71 0,13 18,60 40,104 22,44 40,88 40,98 0,12 -43,60 -105,117 -58,54 -105,105 -105,113 0,7 20,50 45,95 25,45 45,85 45,90 0,4 -43,43 -95,85 -52,43 -95,82 -95,88 0,10 65,100 125,173 25,31 28,32 53,19 15,-8 40,-28 56,-45 z m -2072,-228 c 18,-20 81,-90 141,-155 59,-65 107,-121 107,-125 0,-3 -27,-31 -60,-60 -33,-30 -60,-63 -60,-73 0,-10 25,-56 55,-102 30,-45 55,-88 55,-94 0,-14 -27,-38 -67,-58 -43,-21 -57,-49 -42,-78 7,-13 47,-64 91,-114 43,-51 78,-98 78,-105 0,-8 -30,-43 -65,-79 -36,-36 -65,-69 -65,-74 0,-11 122,-132 195,-193 l 50,-43 -22,-19 c -13,-10 -95,-63 -184,-116 -125,-76 -165,-95 -179,-89 -21,10 -138,104 -182,146 -15,14 -28,33 -28,41 0,8 23,43 51,78 72,91 74,94 50,132 -11,18 -31,43 -45,56 -14,14 -26,31 -26,39 0,8 16,43 35,78 19,34 35,72 35,83 0,13 -30,53 -75,100 -41,43 -75,86 -75,94 0,9 20,35 45,58 26,24 45,50 45,63 0,11 -32,59 -71,106 -98,117 -103,125 -90,149 6,10 21,28 34,38 13,10 33,32 46,50 l 24,32 -28,65 c -21,49 -26,71 -19,87 10,21 167,116 196,118 10,1 32,-16 50,-36 z m 1812,-20 c 23,-21 57,-51 75,-66 36,-32 36,-41 -9,-117 -45,-76 -45,-82 -2,-136 22,-27 69,-77 105,-111 42,-38 67,-69 67,-82 0,-25 -52,-132 -72,-148 -7,-6 -47,-18 -88,-27 -66,-13 -77,-14 -90,0 -13,13 -12,20 13,63 15,27 27,58 27,68 0,16 -48,69 -151,166 -11,9 -19,23 -19,30 0,6 25,55 55,107 30,52 55,103 55,112 0,23 -20,67 -47,104 -26,35 -28,45 -11,62 21,21 50,13 92,-25 z m -142,-105 20,-37 -61,-114 c -34,-63 -61,-123 -61,-134 0,-13 30,-43 85,-87 65,-50 85,-72 85,-90 0,-22 -13,-54 -79,-198 -11,-26 -21,-54 -21,-62 0,-8 28,-33 63,-56 75,-51 107,-80 107,-95 0,-7 -13,-42 -30,-78 -41,-92 -40,-102 20,-132 28,-14 53,-32 56,-39 8,-21 -118,-270 -137,-274 -27,-5 -179,109 -179,133 0,11 13,52 29,90 32,79 31,84 -30,152 -22,24 -39,48 -39,56 0,7 20,44 45,82 25,39 45,73 45,77 0,8 -10,18 -99,93 -68,57 -88,93 -61,110 5,3 17,30 27,61 l 17,55 -52,52 c -29,29 -52,57 -52,63 0,6 19,38 41,72 41,60 42,69 17,105 -12,16 -5,25 54,78 37,33 81,82 98,110 37,61 63,63 92,7 z m -805,-157 c 43,-16 97,-32 121,-36 34,-5 48,-14 63,-39 28,-45 24,-64 -26,-135 -25,-36 -45,-70 -45,-76 0,-13 78,-89 144,-141 47,-37 44,-53 -16,-81 -55,-27 -99,-68 -92,-86 5,-14 30,-32 181,-131 39,-26 69,-53 67,-59 -3,-7 -36,-33 -75,-60 -52,-35 -69,-53 -69,-70 0,-25 151,-184 216,-229 18,-12 34,-30 34,-40 0,-18 -171,-237 -196,-251 -17,-10 -57,18 -141,97 -57,53 -63,73 -34,114 33,47 51,90 45,106 -3,8 -40,41 -81,73 -100,76 -105,87 -59,129 44,41 45,66 4,101 -18,16 -60,54 -93,85 l -60,57 43,80 c 23,44 42,89 42,100 0,11 -16,32 -37,48 -85,62 -144,117 -149,138 -3,13 3,40 15,63 27,53 26,59 -9,107 l -30,39 62,63 c 34,35 70,63 80,63 9,0 52,-13 95,-29 z m 457,-57 c 17,-6 22,-49 8,-58 -5,-3 -21,-23 -36,-45 -27,-39 -27,-40 -10,-73 9,-18 32,-53 51,-77 18,-24 33,-55 33,-68 0,-36 -27,-93 -44,-93 -8,0 -34,17 -58,38 -24,20 -76,61 -116,90 -40,30 -72,58 -72,63 0,5 20,37 45,70 34,46 44,67 38,83 -16,50 -10,61 37,67 66,9 106,10 124,3 z m -963,-18 c 19,-8 67,-22 107,-31 56,-14 78,-25 97,-47 30,-36 31,-47 4,-100 -21,-41 -21,-43 -3,-76 10,-19 47,-60 82,-92 37,-33 62,-63 58,-69 -5,-7 -77,-11 -226,-11 -185,0 -221,2 -234,16 -9,8 -16,19 -16,23 0,13 25,37 68,64 61,39 60,48 -14,162 -30,47 -54,89 -54,94 0,10 79,81 91,81 3,0 22,-6 40,-14 z m 2195,-131 c 4,-8 3,-23 0,-32 -6,-15 -8,-15 -23,-1 -16,17 -12,48 7,48 6,0 13,-7 16,-15 z m 504,-183 c 52,-22 96,-46 98,-52 2,-6 -5,-21 -16,-33 -11,-12 -28,-45 -37,-74 -16,-48 -16,-55 -1,-101 19,-55 42,-80 104,-111 25,-13 47,-32 52,-47 22,-56 4,-593 -21,-631 -17,-28 -66,-30 -177,-9 -82,16 -106,30 -98,60 16,60 38,390 39,601 l 2,240 -37,85 c -21,47 -38,94 -38,104 0,22 2,21 130,-32 z m -1002,-158 c 34,-31 67,-64 72,-75 17,-30 -18,-54 -104,-73 l -76,-17 -45,39 c -25,22 -69,55 -100,73 -55,34 -72,56 -57,71 4,4 46,13 92,19 47,5 87,12 89,15 2,2 18,4 35,4 23,0 46,-14 94,-56 z m -639,-55 c 60,-48 69,-69 44,-112 -34,-58 -58,-51 -245,70 -61,39 -78,59 -63,75 3,3 52,5 110,6 h 105 z m -723,6 c 3,-8 -1,-24 -10,-37 -23,-32 -20,-50 14,-93 16,-20 27,-41 24,-46 -3,-5 -83,-9 -178,-9 -195,0 -209,4 -176,55 24,36 25,68 5,85 -18,15 -20,46 -2,53 6,3 81,6 165,6 125,1 154,-2 158,-14 z m 2188,-27 c 8,-30 7,-113 -2,-163 -7,-39 -8,-40 -57,-46 -28,-3 -117,-16 -198,-28 -183,-29 -186,-27 -137,66 39,73 78,111 122,120 16,3 71,20 121,38 114,41 143,43 151,13 z m -781,-140 c 47,-25 167,-121 167,-134 0,-16 -9,-19 -160,-44 -102,-17 -117,-17 -135,-4 -11,8 -36,26 -55,39 -19,13 -45,31 -57,40 -50,35 -12,70 106,96 94,21 107,22 134,7 z m -666,-113 c 107,-96 98,-125 -39,-125 -49,0 -99,5 -111,11 -32,17 -67,51 -67,65 0,13 125,102 145,103 6,1 38,-24 72,-54 z m -688,26 c 55,-5 77,-12 87,-26 20,-27 18,-34 -13,-46 -33,-12 -43,-26 -43,-60 0,-39 -34,-49 -170,-49 h -119 l -88,72 c -101,83 -106,88 -91,105 12,15 306,17 437,4 z m -934,-43 c 36,-16 32,-45 -16,-100 -37,-43 -45,-48 -82,-47 -87,1 -132,13 -132,33 0,16 88,70 202,125 1,1 14,-4 28,-11 z m 3061,1 c 6,-10 -13,-431 -22,-476 -6,-32 -29,-29 -148,17 -100,39 -136,48 -136,32 0,-26 104,-140 170,-184 47,-32 110,-88 110,-97 0,-8 -165,-8 -1830,-10 -762,0 -1407,3 -1435,7 l -50,7 v 85 c 0,109 23,368 35,398 7,16 18,22 42,22 44,0 84,-26 228,-145 67,-55 140,-112 163,-127 l 41,-28 40,24 c 23,12 102,60 176,106 74,46 166,101 205,124 l 69,41 181,3 c 172,3 182,2 208,-18 15,-12 27,-26 27,-32 0,-6 -16,-37 -36,-70 -35,-58 -36,-59 -18,-86 41,-62 209,-204 267,-225 9,-3 24,-4 32,-1 8,3 68,74 134,158 161,206 146,195 212,149 30,-20 82,-56 117,-80 98,-66 97,-67 180,101 42,85 80,151 94,160 13,8 57,19 98,25 41,6 179,26 305,46 127,19 280,42 340,50 61,9 126,19 145,24 48,12 48,12 56,0 z m -1438,-197 c 2,-7 -3,-12 -12,-12 -9,0 -16,7 -16,16 0,17 22,14 28,-4 z m 2561,-1736 c -2,-2 -13,8 -23,22 l -19,27 24,-22 c 12,-12 21,-24 18,-27 z" id="path61"/>
            <path d="m 9699,9075 c -165,-179 -406,-403 -525,-488 -52,-37 -106,-49 -120,-26 -4,7 51,68 138,153 168,164 238,246 238,281 0,51 -66,21 -165,-75 -187,-181 -490,-414 -776,-595 -75,-48 -89,-66 -69,-91 13,-15 29,-16 135,-11 200,9 373,77 585,227 52,38 122,92 156,121 79,70 272,274 349,369 113,140 126,160 122,183 -3,19 -11,14 -68,-48 z" id="path62"/>
            <path d="m 13175,9129 c -24,-38 350,-461 543,-613 197,-155 345,-233 526,-277 99,-23 253,-26 282,-5 29,22 10,43 -87,101 -178,106 -553,394 -739,570 -119,111 -169,138 -184,98 -11,-28 41,-91 211,-258 89,-88 163,-168 163,-178 0,-13 -8,-17 -33,-17 -26,0 -54,15 -118,63 -120,91 -353,310 -454,427 -48,55 -91,100 -95,100 -5,0 -12,-5 -15,-11 z" id="path63"/>
            <path d="m 12810,9058 c 0,-48 140,-307 259,-479 224,-325 466,-504 723,-534 68,-8 98,0 98,24 0,9 -52,66 -115,125 -64,60 -152,149 -197,200 -45,50 -95,107 -112,126 -38,42 -205,252 -267,335 -33,44 -52,61 -72,63 -33,4 -42,-14 -27,-54 14,-36 115,-193 187,-292 69,-94 80,-117 63,-137 -18,-22 -22,-20 -80,32 -89,80 -308,375 -381,513 -46,86 -79,119 -79,78 z" id="path64"/>
            <path d="m 10096,9045 c -9,-14 -20,-35 -25,-48 -23,-59 -164,-259 -297,-420 -103,-126 -145,-163 -170,-153 -32,12 -16,47 92,196 50,69 148,231 155,256 9,30 -4,46 -32,42 -16,-2 -45,-31 -92,-93 -193,-256 -325,-407 -529,-605 -76,-74 -138,-143 -138,-152 0,-24 32,-31 103,-23 252,29 511,226 734,560 116,173 243,407 243,447 0,26 -25,22 -44,-7 z" id="path65"/>
        </g>
        </g>
</svg>