<!-- https://www.svgrepo.com/svg/111407/sumo-fighter -->
<svg xmlns="http://www.w3.org/2000/svg" xml:space="preserve" width="800" height="800" viewBox="0 0 41.612 41.612"><path d="M35.88 13.611c-.832-.629-1.742-1.217-2.707-1.595-2.18-.854-4.398-1.611-6.602-2.386-.521-.183-.895-.782-.945-1.332-.148-1.628-1.012-3.121-2.506-4.154-.581-.402-.584-.721-.298-1.253.182-.338.35-.683.514-1.027.236-.499.102-1.226-.404-1.449-1.214-.536-3.02-.565-4.263-.012-.504.225-.655.96-.439 1.468l.366.859c.216.508.016 1.166-.402 1.527-1.259 1.087-1.998 2.426-2.116 4.093-.039.551-.423 1.141-.948 1.311-1.901.616-3.782 1.19-5.606 1.908-1.305.513-2.624 1.167-3.689 2.055-.844.704-1.592 1.783-1.88 2.833-.376 1.368.022 4.278 1.085 6.2.266.484.855.498 1.218.084.336-.385.677-.761 1.068-1.076 1.033-.833 1.05-1.854.708-2.953a6.937 6.937 0 0 0-.428-1.009c-.245-.495-.075-.875.376-.844.289.019.554.034.818.033.83-.004 1.985-.382 2.405.021.499.478.439 1.613.473 2.469.017.427-.181.99-.483 1.281-1.127 1.083-2.376 2.039-3.509 3.115-1.868 1.778-2.837 3.889-1.948 6.491.765 2.24 1.594 4.459 2.436 6.672.829 2.179.483 3.029-1.709 3.993a1.103 1.103 0 0 0-.239.161c-.123.101-.134.248-.028.336.084.069.151.122.214.118 1.777-.127 3.56-.217 5.323-.452.505-.067.955-.455.379-1.196-.39-.503-.622-1.273-.605-1.916.05-1.889.314-3.771.378-5.66.013-.392-.054-.785-.138-1.158-.121-.538.191-1.139.705-1.342l3.628-1.435c.514-.203.857.074.768.619-.082.499-.163.991-.247 1.483-.234 1.369.399 2.272 1.617 2.279 3.095.018 6.045-.677 8.603-2.4.791-.532 1.486-.676 2.155-.604.549.06.969.687.964 1.239-.01 1.14-.029 2.246.018 3.349.074 1.796.642 3.634-.295 5.429-.254.49-.219 1.002.19 1.217.269.141.519.255.778.287 1.365.172 2.744.237 4.119.322.133.008.269-.008.403-.029.22-.037.414-.141.433-.228.02-.088-.125-.239-.323-.34a7.965 7.965 0 0 0-.361-.173c-1.7-.745-2.164-1.865-1.489-3.578.641-1.622 1.398-3.212 1.867-4.883.454-1.621 1.029-3.389.797-4.983-.358-2.457-2.264-3.922-4.093-5.461-.423-.356-.871-.218-1.044.306-2.25 6.805-7.771 9.02-11.91 8.984a.907.907 0 0 1-.895-1.012c.036-.32.08-.639.154-.949.184-.768-.093-1.109-.759-1.532-1.186-.753-2.364-1.608-3.296-2.646-.828-.92-1.654-1.91-2.002-3.178-.146-.534.108-.628.467-.209 2.607 3.04 5.866 4.681 9.871 3.292 3.541-1.229 6.985-2.99 7.739-7.151.1-.543.572-.992 1.125-.992h1.792c.552 0 .901.437.742.966-.296.973-.636 1.943-.396 2.739.26.864 1.096 1.554 1.907 2.302.406.374.935.311 1.16-.193.668-1.489.94-2.929 1.11-4.426.218-1.937-.355-3.479-1.871-4.625zm-15.069-1.433c-1.928-.008-3.201-1.422-3.185-3.537.018-2.246 1.53-4.126 3.282-4.079 1.713.046 3.11 1.898 3.11 4.124 0 2.142-1.247 3.5-3.207 3.492z" style="fill:#030104"/></svg>